<?xml version="1.0" standalone="no"?><svg xmlns:xlink="http://www.w3.org/1999/xlink" xmlns="http://www.w3.org/2000/svg" viewBox="0 0 1000 1125" preserveAspectRatio="xMaxYMax slice"><g transform="scale(1.8248175182481752)"><rect x="0" y="0" width="548" height="616.5" fill="#ffffff"/><rect x="0" y="0" width="68.5" height="68.5" fill="#ffd6df"/><path d="M 0 0 A 68.5 68.5 0 0 1  68.5 68.5 L 0 0 A 68.5 68.5 0 0 0 68.5 68.5" fill="#e5e7f2"/><rect x="68.5" y="0" width="68.5" height="68.5" fill="#ffffff"/><rect x="68.5" y="0" width="34.25" height="34.25" fill="#ffeef2"/><polygon points="102.75,0 102.75,34.25 68.5,34.25" fill="#ffa4ba"/><rect x="102.75" y="0" width="34.25" height="34.25" fill="#ffd6df"/><polygon points="102.75,0 137,0 102.75,34.25" fill="#ffa5ba"/><rect x="68.5" y="34.25" width="34.25" height="34.25" fill="#ffeef2"/><polygon points="68.5,34.25 102.75,34.25 102.75,68.5" fill="#ff9db4"/><rect x="102.75" y="34.25" width="34.25" height="34.25" fill="#ffebf0"/><polygon points="102.75,34.25 137,68.5 102.75,68.5" fill="#c0c6df"/><rect x="137" y="0" width="68.5" height="68.5" fill="#ffb8c9"/><path d="M 137 68.5 A 68.5 68.5 0 0 1  205.5 0 L 205.5 68.5" fill="#ffdde5"/><rect x="205.5" y="0" width="68.5" height="68.5" fill="#ffffff"/><rect x="205.5" y="0" width="34.25" height="34.25" fill="#fff7f9"/><polygon points="239.75,0 239.75,34.25 205.5,34.25" fill="#ff9cb3"/><rect x="239.75" y="0" width="34.25" height="34.25" fill="#a3abd0"/><polygon points="239.75,0 274,34.25 239.75,34.25" fill="#ffb4c5"/><rect x="205.5" y="34.25" width="34.25" height="34.25" fill="#8a95c4"/><polygon points="205.5,34.25 239.75,34.25 239.75,68.5" fill="#ffabbe"/><rect x="239.75" y="34.25" width="34.25" height="34.25" fill="#edeff6"/><polygon points="239.75,34.25 274,34.25 239.75,68.5" fill="#ccd1e5"/><rect x="274" y="0" width="68.5" height="68.5" fill="#fffefe"/><rect x="274" y="0" width="68.5" height="68.5" fill="#e0e3f0"/><rect x="342.5" y="0" width="68.5" height="68.5" fill="#ffceda"/><rect x="342.5" y="0" width="68.5" height="68.5" fill="#ffa0b6"/><rect x="411" y="0" width="68.5" height="68.5" fill="#ffffff"/><rect x="411" y="0" width="34.25" height="34.25" fill="#fff1f5"/><path d="M 411 0 A 34.25 34.25 0 0 0 445.25 34.25 L 445.25 0" fill="#edeff6"/><rect x="445.25" y="0" width="34.25" height="34.25" fill="#939ec9"/><path d="M 445.25 34.25 A 34.25 34.25 0 0 0 479.5 0 L 445.25 0" fill="#9fa8ce"/><rect x="411" y="34.25" width="34.25" height="34.25" fill="#8d98c6"/><path d="M 411 68.5 A 34.25 34.25 0 0 1  445.25 34.25 L 445.25 68.5" fill="#fffdfe"/><rect x="445.25" y="34.25" width="34.25" height="34.25" fill="#959fca"/><path d="M 445.25 34.25 A 34.25 34.25 0 0 1 479.5 68.5 L 445.25 68.5" fill="#fff2f5"/><rect x="479.5" y="0" width="68.5" height="68.5" fill="#ffb6c7"/><path d="M 479.5 0 A 68.5 68.5 0 0 1 548 68.5 L 479.5 68.5" fill="#a1aad0"/><rect x="0" y="68.5" width="68.5" height="68.5" fill="#ff97af"/><path d="M 0 137 A 68.5 68.5 0 0 1  68.5 68.5 L 0 137 A 68.5 68.5 0 0 0 68.5 68.5" fill="#ffe6ec"/><rect x="68.5" y="68.5" width="68.5" height="68.5" fill="#ffcbd7"/><path d="M 68.5 137 A 68.5 68.5 0 0 1  137 68.5 L 68.5 137 A 68.5 68.5 0 0 0 137 68.5" fill="#ffd5df"/><rect x="137" y="68.5" width="68.5" height="68.5" fill="#ffffff"/><rect x="137" y="68.5" width="34.25" height="34.25" fill="#ffc1cf"/><path d="M 137 102.75 A 34.25 34.25 0 0 1 171.25 68.5 L 171.25 77.0625 A 25.6875 25.6875 0 0 0 145.5625 102.75" fill="#f0f2f8"/><rect x="171.25" y="68.5" width="34.25" height="34.25" fill="#c9cee4"/><path d="M 171.25 68.5 A 34.25 34.25 0 0 1 205.5 102.75 L 196.9375 102.75 A 25.6875 25.6875 0 0 0 171.25 77.0625" fill="#a3abd0"/><rect x="137" y="102.75" width="34.25" height="34.25" fill="#ffeff3"/><path d="M 137 102.75 A 34.25 34.25 0 0 0 171.25 137 L 171.25 128.4375 A 25.6875 25.6875 0 0 1 145.5625 102.75" fill="#d9dcec"/><rect x="171.25" y="102.75" width="34.25" height="34.25" fill="#b9c0dc"/><path d="M 171.25 137 A 34.25 34.25 0 0 0 205.5 102.75 L 196.9375 102.75 A 25.6875 25.6875 0 0 1 171.25 128.4375" fill="#8b97c5"/><rect x="205.5" y="68.5" width="68.5" height="68.5" fill="#ffffff"/><rect x="205.5" y="68.5" width="34.25" height="34.25" fill="#8d98c6"/><polygon points="239.75,68.5 239.75,102.75 205.5,102.75" fill="#ffe9ee"/><rect x="239.75" y="68.5" width="34.25" height="34.25" fill="#bbc1dd"/><polygon points="239.75,68.5 274,102.75 239.75,102.75" fill="#e6e9f3"/><rect x="205.5" y="102.75" width="34.25" height="34.25" fill="#f9f9fc"/><polygon points="205.5,102.75 239.75,102.75 205.5,137" fill="#fffbfc"/><rect x="239.75" y="102.75" width="34.25" height="34.25" fill="#ffeaef"/><polygon points="239.75,102.75 274,102.75 274,137" fill="#e5e8f2"/><rect x="274" y="68.5" width="68.5" height="68.5" fill="#e8eaf3"/><path d="M 274 137 A 68.5 68.5 0 0 1  342.5 68.5 L 274 137 A 68.5 68.5 0 0 0 342.5 68.5" fill="#8591c2"/><rect x="342.5" y="68.5" width="68.5" height="68.5" fill="#ffffff"/><rect x="342.5" y="68.5" width="34.25" height="34.25" fill="#ffa6bb"/><polygon points="376.75,68.5 376.75,102.75 342.5,102.75" fill="#eef0f7"/><rect x="376.75" y="68.5" width="34.25" height="34.25" fill="#ff95ad"/><polygon points="376.75,68.5 411,102.75 376.75,102.75" fill="#fffdfd"/><rect x="342.5" y="102.75" width="34.25" height="34.25" fill="#99a3cc"/><polygon points="342.5,102.75 376.75,102.75 342.5,137" fill="#ff9cb3"/><rect x="376.75" y="102.75" width="34.25" height="34.25" fill="#ffbdcd"/><polygon points="376.75,102.75 411,102.75 411,137" fill="#ffd1dc"/><rect x="411" y="68.5" width="68.5" height="68.5" fill="#ffffff"/><rect x="411" y="68.5" width="34.25" height="34.25" fill="#98a2cb"/><path d="M 411 68.5 A 34.25 34.25 0 0 1 445.25 102.75 L 411 102.75" fill="#eaecf4"/><rect x="445.25" y="68.5" width="34.25" height="34.25" fill="#edeef6"/><path d="M 445.25 102.75 A 34.25 34.25 0 0 1  479.5 68.5 L 479.5 102.75" fill="#ffb4c5"/><rect x="411" y="102.75" width="34.25" height="34.25" fill="#ffd7e0"/><path d="M 411 137 A 34.25 34.25 0 0 0 445.25 102.75 L 411 102.75" fill="#feffff"/><rect x="445.25" y="102.75" width="34.25" height="34.25" fill="#ffd0db"/><path d="M 445.25 102.75 A 34.25 34.25 0 0 0 479.5 137 L 479.5 102.75" fill="#cbd0e5"/><rect x="479.5" y="68.5" width="68.5" height="68.5" fill="#ffffff"/><rect x="479.5" y="68.5" width="34.25" height="34.25" fill="#a9b1d4"/><path d="M 479.5 102.75 A 34.25 34.25 0 0 1  513.75 68.5 L 513.75 102.75" fill="#fff0f4"/><rect x="513.75" y="68.5" width="34.25" height="34.25" fill="#ffd6e0"/><path d="M 513.75 68.5 A 34.25 34.25 0 0 1 548 102.75 L 513.75 102.75" fill="#c5cbe2"/><rect x="479.5" y="102.75" width="34.25" height="34.25" fill="#fffdfe"/><path d="M 479.5 102.75 A 34.25 34.25 0 0 0 513.75 137 L 513.75 102.75" fill="#ffacbf"/><rect x="513.75" y="102.75" width="34.25" height="34.25" fill="#dbdeed"/><path d="M 513.75 137 A 34.25 34.25 0 0 0 548 102.75 L 513.75 102.75" fill="#e3e5f1"/><rect x="0" y="137" width="68.5" height="68.5" fill="#eceef5"/><polygon points="68.5,137 68.5,205.5 0,205.5" fill="#ffc8d5"/><rect x="68.5" y="137" width="68.5" height="68.5" fill="#ffffff"/><rect x="68.5" y="137" width="34.25" height="34.25" fill="#ffd6e0"/><path d="M 68.5 171.25 A 34.25 34.25 0 0 1  102.75 137 L 102.75 171.25" fill="#dde0ee"/><rect x="102.75" y="137" width="34.25" height="34.25" fill="#ffa6bb"/><path d="M 102.75 137 A 34.25 34.25 0 0 1 137 171.25 L 102.75 171.25" fill="#ffe8ed"/><rect x="68.5" y="171.25" width="34.25" height="34.25" fill="#fdfdfe"/><path d="M 68.5 171.25 A 34.25 34.25 0 0 0 102.75 205.5 L 102.75 171.25" fill="#c5cbe2"/><rect x="102.75" y="171.25" width="34.25" height="34.25" fill="#ff99b0"/><path d="M 102.75 205.5 A 34.25 34.25 0 0 0 137 171.25 L 102.75 171.25" fill="#ffdae3"/><rect x="137" y="137" width="68.5" height="68.5" fill="#ffffff"/><rect x="137" y="137" width="34.25" height="34.25" fill="#ffbdcc"/><path d="M 137 171.25 A 34.25 34.25 0 0 0 171.25 137 L 137 137" fill="#838fc1"/><rect x="171.25" y="137" width="34.25" height="34.25" fill="#a1aad0"/><path d="M 171.25 137 A 34.25 34.25 0 0 0 205.5 171.25 L 205.5 137" fill="#ffebf0"/><rect x="137" y="171.25" width="34.25" height="34.25" fill="#ff9db4"/><path d="M 137 171.25 A 34.25 34.25 0 0 1 171.25 205.5 L 137 205.5" fill="#fff4f7"/><rect x="171.25" y="171.25" width="34.25" height="34.25" fill="#b7bedb"/><path d="M 171.25 205.5 A 34.25 34.25 0 0 1  205.5 171.25 L 205.5 205.5" fill="#8d98c5"/><rect x="205.5" y="137" width="68.5" height="68.5" fill="#ffd2dd"/><rect x="205.5" y="137" width="68.5" height="68.5" fill="#fffdfd"/><rect x="274" y="137" width="68.5" height="68.5" fill="#ffffff"/><rect x="274" y="137" width="34.25" height="34.25" fill="#ffcad6"/><path d="M 274 137 A 34.25 34.25 0 0 0 308.25 171.25 L 308.25 137" fill="#ff96af"/><rect x="308.25" y="137" width="34.25" height="34.25" fill="#ffbbcb"/><path d="M 308.25 171.25 A 34.25 34.25 0 0 0 342.5 137 L 308.25 137" fill="#b3bbd9"/><rect x="274" y="171.25" width="34.25" height="34.25" fill="#fffbfc"/><path d="M 274 205.5 A 34.25 34.25 0 0 1  308.25 171.25 L 308.25 205.5" fill="#f7f8fb"/><rect x="308.25" y="171.25" width="34.25" height="34.25" fill="#8792c2"/><path d="M 308.25 171.25 A 34.25 34.25 0 0 1 342.5 205.5 L 308.25 205.5" fill="#ffbfce"/><rect x="342.5" y="137" width="68.5" height="68.5" fill="#b8bfdb"/><polygon points="411,137 411,205.5 342.5,205.5" fill="#fff2f5"/><rect x="411" y="137" width="68.5" height="68.5" fill="#c4cae1"/><rect x="411" y="137" width="68.5" height="68.5" fill="#ffd1dc"/><rect x="479.5" y="137" width="68.5" height="68.5" fill="#c6cbe2"/><rect x="479.5" y="137" width="68.5" height="68.5" fill="#ffd4de"/><rect x="0" y="205.5" width="68.5" height="68.5" fill="#ffffff"/><rect x="0" y="205.5" width="34.25" height="34.25" fill="#c6cbe2"/><circle cx="17.125" cy="222.625" r="17.125" fill="#ffa1b7"/><rect x="34.25" y="205.5" width="34.25" height="34.25" fill="#ffd3dd"/><rect x="34.25" y="205.5" width="34.25" height="34.25" fill="#ff95ae"/><rect x="0" y="239.75" width="34.25" height="34.25" fill="#ffeaef"/><circle cx="17.125" cy="256.875" r="17.125" fill="#c9cee4"/><rect x="34.25" y="239.75" width="34.25" height="34.25" fill="#a0a9cf"/><rect x="34.25" y="239.75" width="34.25" height="34.25" fill="#ffa5ba"/><rect x="68.5" y="205.5" width="68.5" height="68.5" fill="#ffbbcb"/><polygon points="68.5,205.5 137,205.5 137,274" fill="#8994c3"/><rect x="137" y="205.5" width="68.5" height="68.5" fill="#ffffff"/><rect x="137" y="205.5" width="34.25" height="34.25" fill="#ffdfe6"/><polygon points="171.25,205.5 171.25,239.75 137,239.75" fill="#ffe8ee"/><rect x="171.25" y="205.5" width="34.25" height="34.25" fill="#fff1f4"/><polygon points="171.25,205.5 205.5,205.5 171.25,239.75" fill="#ff97b0"/><rect x="137" y="239.75" width="34.25" height="34.25" fill="#ffc8d5"/><polygon points="137,239.75 171.25,239.75 171.25,274" fill="#fff5f7"/><rect x="171.25" y="239.75" width="34.25" height="34.25" fill="#ffe9ee"/><polygon points="171.25,239.75 205.5,274 171.25,274" fill="#ffcfdb"/><rect x="205.5" y="205.5" width="68.5" height="68.5" fill="#ffffff"/><rect x="205.5" y="205.5" width="34.25" height="34.25" fill="#e1e4f0"/><path d="M 205.5 239.75 A 34.25 34.25 0 0 0 239.75 205.5 L 205.5 205.5" fill="#fffefe"/><rect x="239.75" y="205.5" width="34.25" height="34.25" fill="#ffffff"/><path d="M 239.75 205.5 A 34.25 34.25 0 0 0 274 239.75 L 274 205.5" fill="#eaecf4"/><rect x="205.5" y="239.75" width="34.25" height="34.25" fill="#ffe7ec"/><path d="M 205.5 239.75 A 34.25 34.25 0 0 1 239.75 274 L 205.5 274" fill="#8894c3"/><rect x="239.75" y="239.75" width="34.25" height="34.25" fill="#ffb6c7"/><path d="M 239.75 274 A 34.25 34.25 0 0 1  274 239.75 L 274 274" fill="#bfc5df"/><rect x="274" y="205.5" width="68.5" height="68.5" fill="#ffd4de"/><path d="M 274 205.5 A 68.5 68.5 0 0 1 342.5 274 L 274 274" fill="#ffa2b8"/><rect x="342.5" y="205.5" width="68.5" height="68.5" fill="#ffffff"/><rect x="342.5" y="205.5" width="34.25" height="34.25" fill="#fbfbfd"/><path d="M 342.5 239.75 A 34.25 34.25 0 0 1 376.75 205.5 L 376.75 214.0625 A 25.6875 25.6875 0 0 0 351.0625 239.75" fill="#fffdfe"/><rect x="376.75" y="205.5" width="34.25" height="34.25" fill="#ffb1c4"/><path d="M 376.75 205.5 A 34.25 34.25 0 0 1 411 239.75 L 402.4375 239.75 A 25.6875 25.6875 0 0 0 376.75 214.0625" fill="#ffd8e1"/><rect x="342.5" y="239.75" width="34.25" height="34.25" fill="#dee1ee"/><path d="M 342.5 239.75 A 34.25 34.25 0 0 0 376.75 274 L 376.75 265.4375 A 25.6875 25.6875 0 0 1 351.0625 239.75" fill="#ff96ae"/><rect x="376.75" y="239.75" width="34.25" height="34.25" fill="#d6daeb"/><path d="M 376.75 274 A 34.25 34.25 0 0 0 411 239.75 L 402.4375 239.75 A 25.6875 25.6875 0 0 1 376.75 265.4375" fill="#ffedf1"/><rect x="411" y="205.5" width="68.5" height="68.5" fill="#eaecf5"/><polygon points="411,205.5 479.5,205.5 411,274" fill="#f4f5f9"/><rect x="479.5" y="205.5" width="68.5" height="68.5" fill="#8c97c5"/><path d="M 479.5 205.5 A 68.5 68.5 0 0 0 548 274 L 548 205.5" fill="#9ba5cd"/><rect x="0" y="274" width="68.5" height="68.5" fill="#ffffff"/><rect x="0" y="274" width="34.25" height="34.25" fill="#bcc3dd"/><path d="M 0 308.25 A 34.25 34.25 0 0 1  34.25 274 L 34.25 308.25" fill="#9aa4cc"/><rect x="34.25" y="274" width="34.25" height="34.25" fill="#d1d5e8"/><path d="M 34.25 274 A 34.25 34.25 0 0 1 68.5 308.25 L 34.25 308.25" fill="#b2b9d8"/><rect x="0" y="308.25" width="34.25" height="34.25" fill="#c6cce2"/><path d="M 0 308.25 A 34.25 34.25 0 0 0 34.25 342.5 L 34.25 308.25" fill="#8894c3"/><rect x="34.25" y="308.25" width="34.25" height="34.25" fill="#fffcfd"/><path d="M 34.25 342.5 A 34.25 34.25 0 0 0 68.5 308.25 L 34.25 308.25" fill="#eef0f7"/><rect x="68.5" y="274" width="68.5" height="68.5" fill="#ffffff"/><rect x="68.5" y="274" width="34.25" height="34.25" fill="#f2f3f8"/><path d="M 68.5 308.25 A 34.25 34.25 0 0 1  102.75 274 L 102.75 308.25" fill="#ffd6e0"/><rect x="102.75" y="274" width="34.25" height="34.25" fill="#96a0ca"/><path d="M 102.75 274 A 34.25 34.25 0 0 1 137 308.25 L 102.75 308.25" fill="#ffeaef"/><rect x="68.5" y="308.25" width="34.25" height="34.25" fill="#ffbfce"/><path d="M 68.5 308.25 A 34.25 34.25 0 0 0 102.75 342.5 L 102.75 308.25" fill="#ffdce4"/><rect x="102.75" y="308.25" width="34.25" height="34.25" fill="#ffd9e2"/><path d="M 102.75 342.5 A 34.25 34.25 0 0 0 137 308.25 L 102.75 308.25" fill="#ffa1b7"/><rect x="137" y="274" width="68.5" height="68.5" fill="#ffffff"/><rect x="137" y="274" width="34.25" height="34.25" fill="#a7afd3"/><path d="M 137 308.25 A 34.25 34.25 0 0 0 171.25 274 L 137 274" fill="#ffa9bd"/><rect x="171.25" y="274" width="34.25" height="34.25" fill="#9ca5cd"/><path d="M 171.25 274 A 34.25 34.25 0 0 0 205.5 308.25 L 205.5 274" fill="#dbdfed"/><rect x="137" y="308.25" width="34.25" height="34.25" fill="#fff3f6"/><path d="M 137 308.25 A 34.25 34.25 0 0 1 171.25 342.5 L 137 342.5" fill="#ffe4eb"/><rect x="171.25" y="308.25" width="34.25" height="34.25" fill="#eff0f7"/><path d="M 171.25 342.5 A 34.25 34.25 0 0 1  205.5 308.25 L 205.5 342.5" fill="#ff9cb3"/><rect x="205.5" y="274" width="68.5" height="68.5" fill="#fffafb"/><polygon points="205.5,274 274,274 205.5,342.5" fill="#ffa6bb"/><rect x="274" y="274" width="68.5" height="68.5" fill="#ff9cb3"/><path d="M 274 342.5 A 68.5 68.5 0 0 1  342.5 274 L 274 342.5 A 68.5 68.5 0 0 0 342.5 274" fill="#d9dcec"/><rect x="342.5" y="274" width="68.5" height="68.5" fill="#ff9eb4"/><polygon points="342.5,274 411,274 411,342.5" fill="#97a1ca"/><rect x="411" y="274" width="68.5" height="68.5" fill="#ffffff"/><rect x="411" y="274" width="34.25" height="34.25" fill="#ffa6ba"/><path d="M 411 274 A 34.25 34.25 0 0 0 445.25 308.25 L 445.25 274" fill="#ffcad6"/><rect x="445.25" y="274" width="34.25" height="34.25" fill="#fff8f9"/><path d="M 445.25 308.25 A 34.25 34.25 0 0 0 479.5 274 L 445.25 274" fill="#b6bdda"/><rect x="411" y="308.25" width="34.25" height="34.25" fill="#bdc3de"/><path d="M 411 342.5 A 34.25 34.25 0 0 1  445.25 308.25 L 445.25 342.5" fill="#ffadc0"/><rect x="445.25" y="308.25" width="34.25" height="34.25" fill="#ffa9bd"/><path d="M 445.25 308.25 A 34.25 34.25 0 0 1 479.5 342.5 L 445.25 342.5" fill="#bec4de"/><rect x="479.5" y="274" width="68.5" height="68.5" fill="#ffffff"/><rect x="479.5" y="274" width="34.25" height="34.25" fill="#97a1cb"/><path d="M 479.5 274 A 34.25 34.25 0 0 0 513.75 308.25 L 513.75 274" fill="#c0c6df"/><rect x="513.75" y="274" width="34.25" height="34.25" fill="#ffdce5"/><path d="M 513.75 308.25 A 34.25 34.25 0 0 0 548 274 L 513.75 274" fill="#b8bfdb"/><rect x="479.5" y="308.25" width="34.25" height="34.25" fill="#ff9cb3"/><path d="M 479.5 342.5 A 34.25 34.25 0 0 1  513.75 308.25 L 513.75 342.5" fill="#f8f9fc"/><rect x="513.75" y="308.25" width="34.25" height="34.25" fill="#eaecf4"/><path d="M 513.75 308.25 A 34.25 34.25 0 0 1 548 342.5 L 513.75 342.5" fill="#bac1dc"/><rect x="0" y="342.5" width="68.5" height="68.5" fill="#ffffff"/><rect x="0" y="342.5" width="34.25" height="34.25" fill="#ffafc1"/><polygon points="34.25,342.5 34.25,376.75 0,376.75" fill="#fff8fa"/><rect x="34.25" y="342.5" width="34.25" height="34.25" fill="#ffeff3"/><polygon points="34.25,342.5 68.5,376.75 34.25,376.75" fill="#ffb4c6"/><rect x="0" y="376.75" width="34.25" height="34.25" fill="#ff9db4"/><polygon points="0,376.75 34.25,376.75 34.25,411" fill="#ffacbf"/><rect x="34.25" y="376.75" width="34.25" height="34.25" fill="#b2bad8"/><polygon points="34.25,376.75 68.5,376.75 34.25,411" fill="#ffe1e8"/><rect x="68.5" y="342.5" width="68.5" height="68.5" fill="#ffffff"/><rect x="68.5" y="342.5" width="34.25" height="34.25" fill="#e5e7f2"/><path d="M 68.5 376.75 A 34.25 34.25 0 0 0 102.75 342.5 L 68.5 342.5" fill="#ffd7e0"/><rect x="102.75" y="342.5" width="34.25" height="34.25" fill="#bfc5df"/><path d="M 102.75 342.5 A 34.25 34.25 0 0 0 137 376.75 L 137 342.5" fill="#e6e8f2"/><rect x="68.5" y="376.75" width="34.25" height="34.25" fill="#ffe3ea"/><path d="M 68.5 376.75 A 34.25 34.25 0 0 1 102.75 411 L 68.5 411" fill="#ff9ab1"/><rect x="102.75" y="376.75" width="34.25" height="34.25" fill="#a8b0d3"/><path d="M 102.75 411 A 34.25 34.25 0 0 1  137 376.75 L 137 411" fill="#8893c3"/><rect x="137" y="342.5" width="68.5" height="68.5" fill="#ffffff"/><rect x="137" y="342.5" width="34.25" height="34.25" fill="#d5d9ea"/><polygon points="171.25,342.5 171.25,376.75 137,376.75" fill="#b2bad8"/><rect x="171.25" y="342.5" width="34.25" height="34.25" fill="#96a0ca"/><polygon points="171.25,342.5 205.5,342.5 171.25,376.75" fill="#ff9eb5"/><rect x="137" y="376.75" width="34.25" height="34.25" fill="#ffbecd"/><polygon points="137,376.75 171.25,376.75 171.25,411" fill="#c6cce3"/><rect x="171.25" y="376.75" width="34.25" height="34.25" fill="#ffc4d1"/><polygon points="171.25,376.75 205.5,411 171.25,411" fill="#f2f3f8"/><rect x="205.5" y="342.5" width="68.5" height="68.5" fill="#ffffff"/><rect x="205.5" y="342.5" width="34.25" height="34.25" fill="#d4d8e9"/><polygon points="239.75,342.5 239.75,376.75 205.5,376.75" fill="#b4bcd9"/><rect x="239.75" y="342.5" width="34.25" height="34.25" fill="#ffb4c6"/><polygon points="239.75,342.5 274,376.75 239.75,376.75" fill="#ffd4de"/><rect x="205.5" y="376.75" width="34.25" height="34.25" fill="#ffd4de"/><polygon points="205.5,376.75 239.75,376.75 239.75,411" fill="#ffffff"/><rect x="239.75" y="376.75" width="34.25" height="34.25" fill="#919cc8"/><polygon points="239.75,376.75 274,376.75 239.75,411" fill="#fffafb"/><rect x="274" y="342.5" width="68.5" height="68.5" fill="#bbc2dd"/><path d="M 274 411 A 68.5 68.5 0 0 0 342.5 342.5 L 274 342.5" fill="#ffdce4"/><rect x="342.5" y="342.5" width="68.5" height="68.5" fill="#ffffff"/><rect x="342.5" y="342.5" width="34.25" height="34.25" fill="#abb3d5"/><path d="M 342.5 376.75 A 34.25 34.25 0 0 1  376.75 342.5 L 376.75 376.75" fill="#f6f7fa"/><rect x="376.75" y="342.5" width="34.25" height="34.25" fill="#ffdce4"/><path d="M 376.75 342.5 A 34.25 34.25 0 0 1 411 376.75 L 376.75 376.75" fill="#d9ddec"/><rect x="342.5" y="376.75" width="34.25" height="34.25" fill="#fff7f9"/><path d="M 342.5 376.75 A 34.25 34.25 0 0 0 376.75 411 L 376.75 376.75" fill="#ffa3b8"/><rect x="376.75" y="376.75" width="34.25" height="34.25" fill="#9aa4cc"/><path d="M 376.75 411 A 34.25 34.25 0 0 0 411 376.75 L 376.75 376.75" fill="#dfe2ef"/><rect x="411" y="342.5" width="68.5" height="68.5" fill="#ffffff"/><rect x="411" y="342.5" width="34.25" height="34.25" fill="#a9b1d4"/><polygon points="445.25,342.5 445.25,376.75 411,376.75" fill="#c7cce3"/><rect x="445.25" y="342.5" width="34.25" height="34.25" fill="#ffdee6"/><polygon points="445.25,342.5 479.5,376.75 445.25,376.75" fill="#ff9cb3"/><rect x="411" y="376.75" width="34.25" height="34.25" fill="#ffd3de"/><polygon points="411,376.75 445.25,376.75 411,411" fill="#c2c8e0"/><rect x="445.25" y="376.75" width="34.25" height="34.25" fill="#b4bbd9"/><polygon points="445.25,376.75 479.5,376.75 479.5,411" fill="#ffe1e8"/><rect x="479.5" y="342.5" width="68.5" height="68.5" fill="#ffffff"/><rect x="479.5" y="342.5" width="34.25" height="34.25" fill="#ffeaef"/><polygon points="513.75,342.5 513.75,376.75 479.5,376.75" fill="#8d98c5"/><rect x="513.75" y="342.5" width="34.25" height="34.25" fill="#fff4f6"/><polygon points="513.75,342.5 548,376.75 513.75,376.75" fill="#fff1f4"/><rect x="479.5" y="376.75" width="34.25" height="34.25" fill="#ffbdcc"/><polygon points="479.5,376.75 513.75,376.75 513.75,411" fill="#daddec"/><rect x="513.75" y="376.75" width="34.25" height="34.25" fill="#dde1ee"/><polygon points="513.75,376.75 548,376.75 513.75,411" fill="#ffc0cf"/><rect x="0" y="411" width="68.5" height="68.5" fill="#ffdde5"/><path d="M 0 411 A 68.5 68.5 0 0 0 68.5 479.5 L 68.5 411" fill="#ff9bb2"/><rect x="68.5" y="411" width="68.5" height="68.5" fill="#ffd7e0"/><rect x="68.5" y="411" width="68.5" height="68.5" fill="#ffaabe"/><rect x="137" y="411" width="68.5" height="68.5" fill="#ffffff"/><rect x="137" y="411" width="34.25" height="34.25" fill="#a0a9cf"/><path d="M 137 445.25 A 34.25 34.25 0 0 1  171.25 411 L 171.25 445.25" fill="#8d98c6"/><rect x="171.25" y="411" width="34.25" height="34.25" fill="#c2c8e0"/><path d="M 171.25 411 A 34.25 34.25 0 0 1 205.5 445.25 L 171.25 445.25" fill="#dee1ee"/><rect x="137" y="445.25" width="34.25" height="34.25" fill="#ffe7ed"/><path d="M 137 445.25 A 34.25 34.25 0 0 0 171.25 479.5 L 171.25 445.25" fill="#ffc4d2"/><rect x="171.25" y="445.25" width="34.25" height="34.25" fill="#eff1f7"/><path d="M 171.25 479.5 A 34.25 34.25 0 0 0 205.5 445.25 L 171.25 445.25" fill="#ffacc0"/><rect x="205.5" y="411" width="68.5" height="68.5" fill="#ffffff"/><rect x="205.5" y="411" width="34.25" height="34.25" fill="#ffc7d4"/><path d="M 205.5 445.25 A 34.25 34.25 0 0 1  239.75 411 L 239.75 445.25" fill="#9ea7ce"/><rect x="239.75" y="411" width="34.25" height="34.25" fill="#ffa1b7"/><path d="M 239.75 411 A 34.25 34.25 0 0 1 274 445.25 L 239.75 445.25" fill="#ff97af"/><rect x="205.5" y="445.25" width="34.25" height="34.25" fill="#ffc1d0"/><path d="M 205.5 445.25 A 34.25 34.25 0 0 0 239.75 479.5 L 239.75 445.25" fill="#dbdfed"/><rect x="239.75" y="445.25" width="34.25" height="34.25" fill="#96a0ca"/><path d="M 239.75 479.5 A 34.25 34.25 0 0 0 274 445.25 L 239.75 445.25" fill="#96a0ca"/><rect x="274" y="411" width="68.5" height="68.5" fill="#c7cce3"/><polygon points="274,411 342.5,411 274,479.5" fill="#ffeaef"/><rect x="342.5" y="411" width="68.5" height="68.5" fill="#ffffff"/><rect x="342.5" y="411" width="34.25" height="34.25" fill="#bdc3de"/><path d="M 342.5 411 A 34.25 34.25 0 0 0 376.75 445.25 L 376.75 411" fill="#ffd6df"/><rect x="376.75" y="411" width="34.25" height="34.25" fill="#ff95ae"/><path d="M 376.75 445.25 A 34.25 34.25 0 0 0 411 411 L 376.75 411" fill="#ffbdcc"/><rect x="342.5" y="445.25" width="34.25" height="34.25" fill="#a3abd0"/><path d="M 342.5 479.5 A 34.25 34.25 0 0 1  376.75 445.25 L 376.75 479.5" fill="#ffe8ed"/><rect x="376.75" y="445.25" width="34.25" height="34.25" fill="#eaecf4"/><path d="M 376.75 445.25 A 34.25 34.25 0 0 1 411 479.5 L 376.75 479.5" fill="#ff9bb2"/><rect x="411" y="411" width="68.5" height="68.5" fill="#c4cae2"/><polygon points="411,411 479.5,411 411,479.5" fill="#e8eaf3"/><rect x="479.5" y="411" width="68.5" height="68.5" fill="#ffffff"/><rect x="479.5" y="411" width="34.25" height="34.25" fill="#ffeff3"/><path d="M 479.5 411 A 34.25 34.25 0 0 1 513.75 445.25 L 479.5 445.25" fill="#b9c0dc"/><rect x="513.75" y="411" width="34.25" height="34.25" fill="#e3e5f1"/><path d="M 513.75 445.25 A 34.25 34.25 0 0 1  548 411 L 548 445.25" fill="#edeff6"/><rect x="479.5" y="445.25" width="34.25" height="34.25" fill="#ffc3d1"/><path d="M 479.5 479.5 A 34.25 34.25 0 0 0 513.75 445.25 L 479.5 445.25" fill="#ffdfe7"/><rect x="513.75" y="445.25" width="34.25" height="34.25" fill="#ffedf1"/><path d="M 513.75 445.25 A 34.25 34.25 0 0 0 548 479.5 L 548 445.25" fill="#adb5d6"/><rect x="0" y="479.5" width="68.5" height="68.5" fill="#cacfe4"/><rect x="0" y="479.5" width="68.5" height="68.5" fill="#ff9cb3"/><rect x="68.5" y="479.5" width="68.5" height="68.5" fill="#ffcdd9"/><polygon points="68.5,479.5 137,479.5 68.5,548" fill="#ffd6e0"/><rect x="137" y="479.5" width="68.5" height="68.5" fill="#ffffff"/><rect x="137" y="479.5" width="34.25" height="34.25" fill="#ff9fb6"/><path d="M 137 513.75 A 34.25 34.25 0 0 1  171.25 479.5 L 171.25 513.75" fill="#ffd9e2"/><rect x="171.25" y="479.5" width="34.25" height="34.25" fill="#e9ebf4"/><path d="M 171.25 479.5 A 34.25 34.25 0 0 1 205.5 513.75 L 171.25 513.75" fill="#8e99c6"/><rect x="137" y="513.75" width="34.25" height="34.25" fill="#e7e9f3"/><path d="M 137 513.75 A 34.25 34.25 0 0 0 171.25 548 L 171.25 513.75" fill="#fff9fa"/><rect x="171.25" y="513.75" width="34.25" height="34.25" fill="#ffc0ce"/><path d="M 171.25 548 A 34.25 34.25 0 0 0 205.5 513.75 L 171.25 513.75" fill="#dde1ee"/><rect x="205.5" y="479.5" width="68.5" height="68.5" fill="#ffb3c5"/><polygon points="274,479.5 274,548 205.5,548" fill="#ffafc1"/><rect x="274" y="479.5" width="68.5" height="68.5" fill="#ffffff"/><rect x="274" y="479.5" width="34.25" height="34.25" fill="#ffe7ec"/><path d="M 274 513.75 A 34.25 34.25 0 0 1  308.25 479.5 L 308.25 513.75" fill="#8b96c5"/><rect x="308.25" y="479.5" width="34.25" height="34.25" fill="#8e99c6"/><path d="M 308.25 479.5 A 34.25 34.25 0 0 1 342.5 513.75 L 308.25 513.75" fill="#b7bedb"/><rect x="274" y="513.75" width="34.25" height="34.25" fill="#bbc2dd"/><path d="M 274 513.75 A 34.25 34.25 0 0 0 308.25 548 L 308.25 513.75" fill="#ffd6df"/><rect x="308.25" y="513.75" width="34.25" height="34.25" fill="#c8cde3"/><path d="M 308.25 548 A 34.25 34.25 0 0 0 342.5 513.75 L 308.25 513.75" fill="#fffcfc"/><rect x="342.5" y="479.5" width="68.5" height="68.5" fill="#ffeaef"/><rect x="342.5" y="479.5" width="68.5" height="68.5" fill="#ffadc0"/><rect x="411" y="479.5" width="68.5" height="68.5" fill="#b0b7d7"/><path d="M 411 548 A 68.5 68.5 0 0 1  479.5 479.5 L 479.5 548" fill="#c6cbe2"/><rect x="479.5" y="479.5" width="68.5" height="68.5" fill="#ffffff"/><rect x="479.5" y="479.5" width="34.25" height="34.25" fill="#fff4f6"/><path d="M 479.5 479.5 A 34.25 34.25 0 0 1 513.75 513.75 L 479.5 513.75" fill="#9ba5cd"/><rect x="513.75" y="479.5" width="34.25" height="34.25" fill="#a8b0d3"/><path d="M 513.75 513.75 A 34.25 34.25 0 0 1  548 479.5 L 548 513.75" fill="#d4d8e9"/><rect x="479.5" y="513.75" width="34.25" height="34.25" fill="#919bc7"/><path d="M 479.5 548 A 34.25 34.25 0 0 0 513.75 513.75 L 479.5 513.75" fill="#e6e8f2"/><rect x="513.75" y="513.75" width="34.25" height="34.25" fill="#bec5de"/><path d="M 513.75 513.75 A 34.25 34.25 0 0 0 548 548 L 548 513.75" fill="#ff9db4"/><rect x="0" y="548" width="68.5" height="68.5" fill="#ffffff"/><rect x="0" y="548" width="34.25" height="34.25" fill="#ffc1d0"/><polygon points="34.25,548 34.25,582.25 0,582.25" fill="#f8f9fc"/><rect x="34.25" y="548" width="34.25" height="34.25" fill="#97a1cb"/><polygon points="34.25,548 68.5,582.25 34.25,582.25" fill="#fff5f7"/><rect x="0" y="582.25" width="34.25" height="34.25" fill="#f4f5f9"/><polygon points="0,582.25 34.25,582.25 34.25,616.5" fill="#f5f6fa"/><rect x="34.25" y="582.25" width="34.25" height="34.25" fill="#edeff6"/><polygon points="34.25,582.25 68.5,582.25 34.25,616.5" fill="#eff0f7"/><rect x="68.5" y="548" width="68.5" height="68.5" fill="#ffbbcb"/><path d="M 68.5 616.5 A 68.5 68.5 0 0 0 137 548 L 68.5 548" fill="#f4f5f9"/><rect x="137" y="548" width="68.5" height="68.5" fill="#fff9fa"/><path d="M 137 616.5 A 68.5 68.5 0 0 0 205.5 548 L 137 548" fill="#b4bbd9"/><rect x="205.5" y="548" width="68.5" height="68.5" fill="#b9c0dc"/><rect x="205.5" y="548" width="68.5" height="68.5" fill="#a0a9cf"/><rect x="274" y="548" width="68.5" height="68.5" fill="#ffb9c9"/><path d="M 274 616.5 A 68.5 68.5 0 0 0 342.5 548 L 274 548" fill="#ffc4d2"/><rect x="342.5" y="548" width="68.5" height="68.5" fill="#ffffff"/><rect x="342.5" y="548" width="34.25" height="34.25" fill="#dde0ee"/><path d="M 342.5 582.25 A 34.25 34.25 0 0 1 376.75 548 L 376.75 556.5625 A 25.6875 25.6875 0 0 0 351.0625 582.25" fill="#ff98b0"/><rect x="376.75" y="548" width="34.25" height="34.25" fill="#ffd6df"/><path d="M 376.75 548 A 34.25 34.25 0 0 1 411 582.25 L 402.4375 582.25 A 25.6875 25.6875 0 0 0 376.75 556.5625" fill="#eff1f7"/><rect x="342.5" y="582.25" width="34.25" height="34.25" fill="#cacfe4"/><path d="M 342.5 582.25 A 34.25 34.25 0 0 0 376.75 616.5 L 376.75 607.9375 A 25.6875 25.6875 0 0 1 351.0625 582.25" fill="#ffebef"/><rect x="376.75" y="582.25" width="34.25" height="34.25" fill="#d1d6e8"/><path d="M 376.75 616.5 A 34.25 34.25 0 0 0 411 582.25 L 402.4375 582.25 A 25.6875 25.6875 0 0 1 376.75 607.9375" fill="#fffdfe"/><rect x="411" y="548" width="68.5" height="68.5" fill="#c2c8e0"/><rect x="411" y="548" width="68.5" height="68.5" fill="#9aa4cc"/><rect x="479.5" y="548" width="68.5" height="68.5" fill="#bac0dc"/><polygon points="479.5,548 548,548 548,616.5" fill="#ffd5df"/></g></svg>